<svg width="30" height="30" viewBox="0 0 30 30" fill="none" xmlns="http://www.w3.org/2000/svg">
<circle cx="15" cy="15" r="15" fill="#6C6CEA"/>
<path d="M21.7517 18.6743L15.1725 21.9495C15.0949 21.9828 15.0113 22 14.9269 22C14.8424 22 14.7589 21.9828 14.6813 21.9495L8.1017 18.6743C7.96777 18.6073 7.96777 18.4975 8.1017 18.4302L9.67737 17.6474C9.75509 17.6141 9.83875 17.5969 9.9233 17.5969C10.0078 17.5969 10.0915 17.6141 10.1692 17.6474L14.6813 19.8907C14.7588 19.9242 14.8424 19.9415 14.9269 19.9415C15.0113 19.9415 15.0949 19.9242 15.1725 19.8907L19.6845 17.6474C19.7622 17.6141 19.8458 17.5969 19.9303 17.5969C20.0148 17.5969 20.0984 17.6141 20.176 17.6474L21.7517 18.4319C21.8873 18.4975 21.8873 18.6073 21.7517 18.6743ZM21.7517 14.103L20.176 13.3185C20.0984 13.2852 20.0148 13.268 19.9303 13.268C19.8458 13.268 19.7622 13.2852 19.6845 13.3185L15.1725 15.5645C15.0948 15.5976 15.0113 15.6147 14.9269 15.6147C14.8425 15.6147 14.7589 15.5976 14.6813 15.5645L10.1692 13.3185C10.0915 13.2852 10.0078 13.268 9.9233 13.268C9.83875 13.268 9.75509 13.2852 9.67737 13.3185L8.1017 14.103C7.96777 14.17 7.96777 14.2801 8.1017 14.3477L14.6813 17.6223C14.7589 17.6556 14.8424 17.6728 14.9269 17.6728C15.0113 17.6728 15.0949 17.6556 15.1725 17.6223L21.7517 14.3477C21.8873 14.2801 21.8873 14.1703 21.7517 14.103ZM8.1017 10.2954L14.6809 13.3185C14.8388 13.3805 15.0143 13.3805 15.1721 13.3185L21.7517 10.2954C21.8856 10.2331 21.8856 10.1317 21.7517 10.0697L15.1721 7.04696C15.0144 6.98435 14.8387 6.98435 14.6809 7.04696L8.1017 10.0697C7.9661 10.1317 7.9661 10.2331 8.1017 10.2954Z" fill="white"/>
</svg>
